<mxfile modified="2022-07-05T20:37:48.231Z" host="app.diagrams.net" agent="5.0 (X11; Linux x86_64) AppleWebKit/537.36 (KHTML, like Gecko) Chrome/102.0.0.0 Safari/537.36" etag="83mybzxQpMmivNv3QnO5" version="20.0.4" type="github">
  <diagram id="Ht1M8jgEwFfnCIfOTk4-" name="Page-1">
    <mxGraphModel dx="1422" dy="737" grid="1" gridSize="10" guides="1" tooltips="1" connect="1" arrows="1" fold="1" page="1" pageScale="1" pageWidth="1169" pageHeight="827" math="0" shadow="0">
      <root>
        <mxCell id="0" />
        <mxCell id="1" parent="0" />
        <mxCell id="hSxU9nhvMt24uW7oTp4U-1" value="Skyone - VPN" style="sketch=0;outlineConnect=0;gradientColor=none;fontColor=#545B64;strokeColor=none;fillColor=#879196;dashed=0;verticalLabelPosition=bottom;verticalAlign=top;align=center;html=1;fontSize=12;fontStyle=0;aspect=fixed;shape=mxgraph.aws4.illustration_office_building;pointerEvents=1" vertex="1" parent="1">
          <mxGeometry x="140" y="360" width="100" height="71" as="geometry" />
        </mxCell>
        <mxCell id="hSxU9nhvMt24uW7oTp4U-2" value="Autosky" style="points=[[0,0],[0.25,0],[0.5,0],[0.75,0],[1,0],[1,0.25],[1,0.5],[1,0.75],[1,1],[0.75,1],[0.5,1],[0.25,1],[0,1],[0,0.75],[0,0.5],[0,0.25]];outlineConnect=0;gradientColor=none;html=1;whiteSpace=wrap;fontSize=12;fontStyle=0;container=1;pointerEvents=0;collapsible=0;recursiveResize=0;shape=mxgraph.aws4.group;grIcon=mxgraph.aws4.group_aws_cloud_alt;strokeColor=#232F3E;fillColor=none;verticalAlign=top;align=left;spacingLeft=30;fontColor=#232F3E;dashed=0;" vertex="1" parent="1">
          <mxGeometry x="75" y="500" width="230" height="250" as="geometry" />
        </mxCell>
        <mxCell id="hSxU9nhvMt24uW7oTp4U-3" value="Engine-A" style="sketch=0;points=[[0,0,0],[0.25,0,0],[0.5,0,0],[0.75,0,0],[1,0,0],[0,1,0],[0.25,1,0],[0.5,1,0],[0.75,1,0],[1,1,0],[0,0.25,0],[0,0.5,0],[0,0.75,0],[1,0.25,0],[1,0.5,0],[1,0.75,0]];outlineConnect=0;fontColor=#232F3E;gradientColor=#F78E04;gradientDirection=north;fillColor=#D05C17;strokeColor=#ffffff;dashed=0;verticalLabelPosition=bottom;verticalAlign=top;align=center;html=1;fontSize=12;fontStyle=0;aspect=fixed;shape=mxgraph.aws4.resourceIcon;resIcon=mxgraph.aws4.ec2;" vertex="1" parent="hSxU9nhvMt24uW7oTp4U-2">
          <mxGeometry x="30" y="40" width="78" height="78" as="geometry" />
        </mxCell>
        <mxCell id="hSxU9nhvMt24uW7oTp4U-4" value="Engine-C" style="sketch=0;points=[[0,0,0],[0.25,0,0],[0.5,0,0],[0.75,0,0],[1,0,0],[0,1,0],[0.25,1,0],[0.5,1,0],[0.75,1,0],[1,1,0],[0,0.25,0],[0,0.5,0],[0,0.75,0],[1,0.25,0],[1,0.5,0],[1,0.75,0]];outlineConnect=0;fontColor=#232F3E;gradientColor=#F78E04;gradientDirection=north;fillColor=#D05C17;strokeColor=#ffffff;dashed=0;verticalLabelPosition=bottom;verticalAlign=top;align=center;html=1;fontSize=12;fontStyle=0;aspect=fixed;shape=mxgraph.aws4.resourceIcon;resIcon=mxgraph.aws4.ec2;" vertex="1" parent="hSxU9nhvMt24uW7oTp4U-2">
          <mxGeometry x="120" y="120" width="78" height="78" as="geometry" />
        </mxCell>
        <mxCell id="hSxU9nhvMt24uW7oTp4U-5" value="Rancher" style="points=[[0,0],[0.25,0],[0.5,0],[0.75,0],[1,0],[1,0.25],[1,0.5],[1,0.75],[1,1],[0.75,1],[0.5,1],[0.25,1],[0,1],[0,0.75],[0,0.5],[0,0.25]];outlineConnect=0;gradientColor=none;html=1;whiteSpace=wrap;fontSize=12;fontStyle=0;container=1;pointerEvents=0;collapsible=0;recursiveResize=0;shape=mxgraph.aws4.group;grIcon=mxgraph.aws4.group_aws_cloud_alt;strokeColor=#232F3E;fillColor=none;verticalAlign=top;align=left;spacingLeft=30;fontColor=#232F3E;dashed=0;" vertex="1" parent="1">
          <mxGeometry x="79" y="60" width="231" height="230" as="geometry" />
        </mxCell>
        <mxCell id="hSxU9nhvMt24uW7oTp4U-14" value="" style="edgeStyle=orthogonalEdgeStyle;rounded=0;orthogonalLoop=1;jettySize=auto;html=1;strokeWidth=2;startArrow=none;startFill=0;" edge="1" parent="hSxU9nhvMt24uW7oTp4U-5" source="hSxU9nhvMt24uW7oTp4U-6" target="hSxU9nhvMt24uW7oTp4U-13">
          <mxGeometry relative="1" as="geometry" />
        </mxCell>
        <mxCell id="hSxU9nhvMt24uW7oTp4U-6" value="Rancher" style="sketch=0;points=[[0,0,0],[0.25,0,0],[0.5,0,0],[0.75,0,0],[1,0,0],[0,1,0],[0.25,1,0],[0.5,1,0],[0.75,1,0],[1,1,0],[0,0.25,0],[0,0.5,0],[0,0.75,0],[1,0.25,0],[1,0.5,0],[1,0.75,0]];outlineConnect=0;fontColor=#232F3E;gradientColor=#F78E04;gradientDirection=north;fillColor=#D05C17;strokeColor=#ffffff;dashed=0;verticalLabelPosition=bottom;verticalAlign=top;align=center;html=1;fontSize=12;fontStyle=0;aspect=fixed;shape=mxgraph.aws4.resourceIcon;resIcon=mxgraph.aws4.ec2;" vertex="1" parent="hSxU9nhvMt24uW7oTp4U-5">
          <mxGeometry x="21" y="80" width="60" height="60" as="geometry" />
        </mxCell>
        <mxCell id="hSxU9nhvMt24uW7oTp4U-13" value="VPN" style="outlineConnect=0;dashed=0;verticalLabelPosition=bottom;verticalAlign=top;align=center;html=1;shape=mxgraph.aws3.vpn_gateway;fillColor=#F58534;gradientColor=none;" vertex="1" parent="hSxU9nhvMt24uW7oTp4U-5">
          <mxGeometry x="161" y="90" width="46" height="40" as="geometry" />
        </mxCell>
        <mxCell id="hSxU9nhvMt24uW7oTp4U-9" value="OCI" style="points=[[0,0],[0.25,0],[0.5,0],[0.75,0],[1,0],[1,0.25],[1,0.5],[1,0.75],[1,1],[0.75,1],[0.5,1],[0.25,1],[0,1],[0,0.75],[0,0.5],[0,0.25]];outlineConnect=0;gradientColor=none;html=1;whiteSpace=wrap;fontSize=12;fontStyle=0;container=1;pointerEvents=0;collapsible=0;recursiveResize=0;shape=mxgraph.aws4.group;grIcon=mxgraph.aws4.group_aws_cloud;strokeColor=#232F3E;fillColor=none;verticalAlign=top;align=left;spacingLeft=30;fontColor=#232F3E;dashed=0;" vertex="1" parent="1">
          <mxGeometry x="380" y="60" width="750" height="690" as="geometry" />
        </mxCell>
        <mxCell id="hSxU9nhvMt24uW7oTp4U-10" value="Load Balancer" style="sketch=0;aspect=fixed;html=1;points=[];align=center;image;fontSize=12;image=img/lib/mscae/Application_Gateway.svg;" vertex="1" parent="hSxU9nhvMt24uW7oTp4U-9">
          <mxGeometry x="80" y="420" width="70" height="70" as="geometry" />
        </mxCell>
        <mxCell id="hSxU9nhvMt24uW7oTp4U-15" value="VPN" style="outlineConnect=0;dashed=0;verticalLabelPosition=bottom;verticalAlign=top;align=center;html=1;shape=mxgraph.aws3.vpn_gateway;fillColor=#F58534;gradientColor=none;" vertex="1" parent="hSxU9nhvMt24uW7oTp4U-9">
          <mxGeometry x="30" y="90" width="46" height="40" as="geometry" />
        </mxCell>
        <mxCell id="hSxU9nhvMt24uW7oTp4U-18" value="" style="image;html=1;image=img/lib/clip_art/networking/Firewall_02_128x128.png" vertex="1" parent="hSxU9nhvMt24uW7oTp4U-9">
          <mxGeometry x="20" y="466" width="20" height="24" as="geometry" />
        </mxCell>
        <mxCell id="hSxU9nhvMt24uW7oTp4U-11" value="" style="edgeStyle=orthogonalEdgeStyle;html=1;endArrow=block;elbow=vertical;startArrow=none;endFill=1;strokeColor=#545B64;rounded=0;strokeWidth=2;" edge="1" parent="1" source="hSxU9nhvMt24uW7oTp4U-1" target="hSxU9nhvMt24uW7oTp4U-10">
          <mxGeometry width="100" relative="1" as="geometry">
            <mxPoint x="260" y="404.5" as="sourcePoint" />
            <mxPoint x="360" y="404.5" as="targetPoint" />
            <Array as="points">
              <mxPoint x="350" y="396" />
              <mxPoint x="350" y="515" />
            </Array>
          </mxGeometry>
        </mxCell>
        <mxCell id="hSxU9nhvMt24uW7oTp4U-12" value="" style="edgeStyle=orthogonalEdgeStyle;html=1;endArrow=block;elbow=vertical;startArrow=none;endFill=1;strokeColor=#545B64;rounded=0;exitX=1;exitY=0.5;exitDx=0;exitDy=0;strokeWidth=2;" edge="1" parent="1" source="hSxU9nhvMt24uW7oTp4U-2" target="hSxU9nhvMt24uW7oTp4U-10">
          <mxGeometry width="100" relative="1" as="geometry">
            <mxPoint x="350" y="620" as="sourcePoint" />
            <mxPoint x="450" y="620" as="targetPoint" />
            <Array as="points">
              <mxPoint x="350" y="625" />
              <mxPoint x="350" y="515" />
            </Array>
          </mxGeometry>
        </mxCell>
        <mxCell id="hSxU9nhvMt24uW7oTp4U-17" value="HTTTPS" style="edgeLabel;html=1;align=left;verticalAlign=middle;resizable=0;points=[];labelPosition=right;verticalLabelPosition=middle;" vertex="1" connectable="0" parent="hSxU9nhvMt24uW7oTp4U-12">
          <mxGeometry x="0.4189" relative="1" as="geometry">
            <mxPoint as="offset" />
          </mxGeometry>
        </mxCell>
        <mxCell id="hSxU9nhvMt24uW7oTp4U-16" value="" style="edgeStyle=orthogonalEdgeStyle;rounded=0;orthogonalLoop=1;jettySize=auto;html=1;startArrow=classic;startFill=1;strokeWidth=2;fillColor=#d5e8d4;strokeColor=#82b366;" edge="1" parent="1" source="hSxU9nhvMt24uW7oTp4U-13" target="hSxU9nhvMt24uW7oTp4U-15">
          <mxGeometry relative="1" as="geometry" />
        </mxCell>
      </root>
    </mxGraphModel>
  </diagram>
</mxfile>
